#N canvas 960 0 956 1002 12;
#X floatatom 340 241 5 0 0 0 - - - 0;
#X msg 330 39 Test1 1;
#X msg 332 191 m1 1 2.3 foobar;
#X msg 332 97 Test2 15;
#X msg 332 146 Test3 123;
#X floatatom 391 365 4 0 0 0 - - - 0;
#X obj 351 320 bng 18 250 50 0 empty empty empty 0 -9 0 12 #fcfcfc #000000 #000000;
#X text 379 241 Set Test1 \, update();
#X text 388 41 Set Test1 \, update();
#X text 376 320 operator()();
#X text 396 98 Set Test2 \, update();
#X text 403 147 Set Test3 \, update();
#X text 446 193 call m1();
#X symbolatom 457 438 10 0 0 0 - - - 0;
#X msg 516 486 list 1 32 17 14 6 145;
#X text 422 365 Set Test3 \, update();
#X msg 341 281 Test5 1 3 5 17 12;
#X msg 457 411 symbol hello;
#X text 556 412 Set Test4 \, update();
#X text 674 487 Set Test5 \, update();
#X floatatom 329 599 5 0 0 0 - - - 0;
#X listbox 331 632 20 0 0 0 - - - 0;
#X listbox 332 678 20 0 0 0 - - - 0;
#X listbox 332 726 20 0 0 0 - - - 0;
#X floatatom 577 533 5 0 0 0 - - - 0;
#X text 623 530 Set slider (it has no update method);
#X listbox 335 784 20 0 0 0 - - - 0;
#X listbox 335 855 20 0 0 0 - - - 0;
#X listbox 335 906 20 0 0 0 - - - 0;
#X obj 335 829 list;
#X listbox 333 967 20 0 0 0 - - - 0;
#X listbox 334 1021 20 0 0 0 - - - 0;
#X obj 334 998 list;
#X obj 329 564 avnd_complete_message_example ______;
#X text 202 590 out_int: a straight number, f 16;
#X text 124 626 out_vec3: list (fixed:array<float \, 3>), f 27;
#X text 118 670 out_obj1: list (C++ aggregate turned into object), f 28;
#X text 107 722 out_obj2: list (C++ aggregate turned into object), f 30;
#X text 69 774 out_msg1: list (passed as arguments to a callback), f 35;
#X text 103 834 out_msg2: custom selector set explicitly, f 30;
#X obj 333 942 list;
#X text 128 893 out_msg_list: list (pd does not support recursive data structures), f 26;
#X text 123 945 out_msg_listsym:, f 26;
#X text 129 1016 out_msg_dynsym:, f 26;
#X connect 0 0 33 0;
#X connect 1 0 33 0;
#X connect 2 0 33 0;
#X connect 3 0 33 0;
#X connect 4 0 33 0;
#X connect 5 0 33 1;
#X connect 6 0 33 0;
#X connect 13 0 33 2;
#X connect 14 0 33 3;
#X connect 16 0 33 0;
#X connect 17 0 13 0;
#X connect 24 0 33 4;
#X connect 29 0 27 0;
#X connect 32 0 31 0;
#X connect 33 0 20 0;
#X connect 33 1 21 0;
#X connect 33 2 22 0;
#X connect 33 3 23 0;
#X connect 33 4 26 0;
#X connect 33 5 29 0;
#X connect 33 6 28 0;
#X connect 33 7 40 0;
#X connect 33 8 32 0;
#X connect 40 0 30 0;
