#N canvas 1344 0 956 1035 12;
#X obj 135 472 avnd_complete_message_example;
#X obj 138 523 print A;
#X obj 337 524 print B;
#X floatatom 143 306 5 0 0 0 - - - 0;
#X msg 135 76 Test1 1;
#X msg 137 228 m1 1 2.3 foobar;
#X msg 137 134 Test2 15;
#X msg 137 183 Test3 123;
#X floatatom 202 401 4 0 0 0 - - - 0;
#X obj 140 272 bng 18 250 50 0 empty empty empty 0 -9 0 12 #fcfcfc #000000 #000000;
#X text 182 306 Set Test1 \, update();
#X text 193 78 Set Test1 \, update();
#X text 162 273 operator()();
#X text 201 135 Set Test2 \, update();
#X text 208 184 Set Test3 \, update();
#X text 251 230 call m1();
#X symbolatom 268 438 10 0 0 0 - - - 0;
#X msg 361 445 list 1 32 17 14 6 145;
#X text 197 382 Set Test3 \, update();
#X msg 145 347 Test5 1 3 5 17 12;
#X msg 266 408 symbol hello;
#X text 367 407 Set Test4 \, update();
#X text 519 446 Set Test5 \, update();
#X connect 0 0 1 0;
#X connect 0 1 2 0;
#X connect 3 0 0 0;
#X connect 4 0 0 0;
#X connect 5 0 0 0;
#X connect 6 0 0 0;
#X connect 7 0 0 0;
#X connect 8 0 0 1;
#X connect 9 0 0 0;
#X connect 16 0 0 2;
#X connect 17 0 0 3;
#X connect 19 0 0 0;
#X connect 20 0 16 0;
